# xmcd
#
# Track frame offsets: 
#        150
#        33702
#        59402
#        87090
#        117090
#        141762
#
# Disc length: 2290 seconds
#
# Revision: 2
# Processed by: cddbd v1.5.2PL0 Copyright (c) Steve Scherf et al.
# Submitted via: ExactAudioCopy v1.0b2
#
DISCID=4d08f006
DTITLE=Ralph McDonald - Counterpoint [Japan Edit]
DYEAR=1979
DGENRE=Jazz+Funk
TTITLE0=I Need Someone
TTITLE1=You are in Love
TTITLE2=Tell the Truth
TTITLE3=Discolypso
TTITLE4=Always Something Missing
TTITLE5=East Dry River
EXTD=YEAR: 1979
EXTT0=
EXTT1=
EXTT2=
EXTT3=
EXTT4=
EXTT5=
PLAYORDER=
